<?xml version="1.0" encoding="utf-8"?><svg width="81" height="75" viewBox="0 0 81 75" xmlns="http://www.w3.org/2000/svg" xmlns:xlink="http://www.w3.org/1999/xlink"><svg data-name="Group 187" width="30.66" height="41.92" viewBox="-2 -2 30.66 41.92" id="geo" y="32.4" xmlns="http://www.w3.org/2000/svg"><path data-name="Path 178" d="M13.331 0A13.334 13.334 0 001.99 20.342l10.583 17.054a1.108 1.108 0 00.944.525h.008a1.111 1.111 0 00.945-.54l10.313-17.219A13.335 13.335 0 0013.331 0z" fill="#66caff"/><path data-name="Path 179" d="M13.331 6.667a6.666 6.666 0 106.666 6.666 6.673 6.673 0 00-6.666-6.666z" fill="#fff"/></svg><svg width="26.22" height="28.84" viewBox="-2 -2 26.22 28.84" id="phone" x="46.66" y="34.21" xmlns="http://www.w3.org/2000/svg"><g data-name="Group 185"><path data-name="Path 177" d="M21.723 19.652l-3.432-3.846a1.655 1.655 0 00-2.337-.139 1.535 1.535 0 00-.185.193L14.04 17.8c-.109-.067-.222-.139-.341-.214a17.361 17.361 0 01-4.158-3.369 19.438 19.438 0 01-3.013-4.671 16.129 16.129 0 01-.186-.373l1.159-1.3.571-.641a2.176 2.176 0 00.046-2.826L4.685.559A1.654 1.654 0 002.351.414a1.53 1.53 0 00-.189.2l-.966 1.088.025.03a6.514 6.514 0 00-.8 1.575 7.1 7.1 0 00-.354 1.6c-.455 4.209 1.263 8.058 5.921 13.278 6.44 7.215 11.632 6.672 11.856 6.643a5.277 5.277 0 001.431-.4 5.387 5.387 0 001.4-.889l.021.022.982-1.078a2.185 2.185 0 00.044-2.83z" fill="#66caff"/></g></svg><svg width="34.28" height="34.21" viewBox="-2 -2 34.28 34.21" id="phone-2" x="46.66" xmlns="http://www.w3.org/2000/svg"><path data-name="Path 177" d="M29.601 23.897l-4.676-4.678a2.438 2.438 0 00-3.437.066l-2.356 2.356c-.149-.081-.3-.168-.465-.259a22.05 22.05 0 01-9.774-9.777q-.134-.234-.253-.454l1.58-1.578.778-.778a2.435 2.435 0 00.063-3.437L6.383.68a2.434 2.434 0 00-3.438.065L1.629 2.069l.034.036A7.624 7.624 0 00.579 4.02a7.841 7.841 0 00-.483 1.944c-.619 5.119 1.721 9.8 8.068 16.147 8.776 8.773 15.85 8.113 16.155 8.079a7.92 7.92 0 001.949-.489 7.516 7.516 0 001.907-1.081l.029.026 1.337-1.308a2.443 2.443 0 00.06-3.441zm0 0" fill="#66caff"/></svg><svg data-name="Group 184" width="46.66" height="32.4" viewBox="-2 -2 46.66 32.4" id="telegram" xmlns="http://www.w3.org/2000/svg"><g data-name="Group 183"><g data-name="Group 182"><path data-name="Path 176" d="M42.638.59V.583a.73.73 0 00-.094-.243.749.749 0 00-.167-.18c-.013-.01-.028-.017-.042-.028a.73.73 0 00-.169-.083.778.778 0 00-.118-.024.679.679 0 00-.093-.018h-.108l-.056.011L.568 8.537a.708.708 0 00-.187 1.32l11.808 6.23 2.073 11.494a.09.09 0 000 .028.77.77 0 000 .166.734.734 0 00.091.274c.007.014.007.024.014.038l.01.007a.465.465 0 01.031.038.894.894 0 00.108.111.081.081 0 00.021.017c.01.011.02.011.031.018a.975.975 0 00.135.069.3.3 0 00.059.024.7.7 0 00.2.031h.044a.715.715 0 00.507-.224l7.859-5.247 8.234 5.358a.748.748 0 00.388.113.726.726 0 00.226-.037.7.7 0 00.44-.431l9.895-26.856a.715.715 0 00.1-.371.627.627 0 00-.024-.117zm-8.227 4.774L17.377 17.891a.726.726 0 00-.077.069l-.024.024a.549.549 0 00-.041.052.394.394 0 00-.035.052.628.628 0 00-.066.132c0 .011-.01.017-.01.027l-.007.008-1.952 6.344-1.546-8.585zm-18.144 20.6l1.935-6.393 3.012 1.959.864.561-2.93 1.952zm0 0" fill="#66caff"/></g></g></svg></svg>