<?xml version="1.0" encoding="utf-8"?><svg width="167" height="135" viewBox="0 0 167 135" xmlns="http://www.w3.org/2000/svg" xmlns:xlink="http://www.w3.org/1999/xlink"><svg data-name="Group 187" width="30.66" height="41.92" viewBox="-2 -2 30.66 41.92" id="geo" x="136" xmlns="http://www.w3.org/2000/svg"><path data-name="Path 178" d="M13.331 0A13.334 13.334 0 001.99 20.342l10.583 17.054a1.108 1.108 0 00.944.525h.008a1.111 1.111 0 00.945-.54l10.313-17.219A13.335 13.335 0 0013.331 0z" fill="#66caff"/><path data-name="Path 179" d="M13.331 6.667a6.666 6.666 0 106.666 6.666 6.673 6.673 0 00-6.666-6.666z" fill="#fff"/></svg><svg width="68" height="68" fill="none" viewBox="-2 -2 68 68" id="goal" xmlns="http://www.w3.org/2000/svg"><path d="M43.294 30.118h5.542c-.87-7.84-7.113-14.083-14.954-14.954v5.542h-3.764v-5.542c-7.84.87-14.083 7.113-14.954 14.954h5.542v3.764h-5.542c.87 7.84 7.113 14.083 14.954 14.954v-5.542h3.764v5.542c7.84-.87 14.083-7.113 14.954-14.954h-5.542v-3.764z" fill="#000"/><path d="M54.627 9.373C48.583 3.329 40.547 0 32 0 23.453 0 15.417 3.329 9.373 9.373 3.329 15.417 0 23.453 0 32c0 8.547 3.329 16.583 9.373 22.627C15.417 60.671 23.453 64 32 64c8.547 0 16.583-3.328 22.627-9.373C60.671 48.583 64 40.547 64 32c0-8.547-3.328-16.583-9.373-22.627zm-2.008 24.51C51.721 43.8 43.8 51.72 33.882 52.618v1.938h-3.764v-1.938C20.2 51.721 12.277 43.8 11.38 33.883H9.307v-3.764h2.074c.898-9.918 8.819-17.84 18.737-18.737v-1.96h3.764v1.958c9.919.899 17.84 8.82 18.738 18.738h2.052v3.764h-2.053z" fill="#000"/></svg><svg width="68" height="68" fill="none" viewBox="-2 -2 68 68" id="list" x="68" xmlns="http://www.w3.org/2000/svg"><path d="M0 11a8 8 0 1116 0v18H0V11z" fill="#000"/><path fill-rule="evenodd" clip-rule="evenodd" d="M54 0H16s5 2 5 8v56h43V10c0-5.523-4.477-10-10-10zm-9 8H29v5h16V8zM29 19h27v5H29v-5zm27 11H29v5h27v-5zM29 41h27v5H29v-5zm27 11H29v5h27v-5z" fill="#000"/></svg><svg width="26.22" height="28.84" viewBox="-2 -2 26.22 28.84" id="phone" x="136" y="41.92" xmlns="http://www.w3.org/2000/svg"><g data-name="Group 185"><path data-name="Path 177" d="M21.723 19.652l-3.432-3.846a1.655 1.655 0 00-2.337-.139 1.535 1.535 0 00-.185.193L14.04 17.8c-.109-.067-.222-.139-.341-.214a17.361 17.361 0 01-4.158-3.369 19.438 19.438 0 01-3.013-4.671 16.129 16.129 0 01-.186-.373l1.159-1.3.571-.641a2.176 2.176 0 00.046-2.826L4.685.559A1.654 1.654 0 002.351.414a1.53 1.53 0 00-.189.2l-.966 1.088.025.03a6.514 6.514 0 00-.8 1.575 7.1 7.1 0 00-.354 1.6c-.455 4.209 1.263 8.058 5.921 13.278 6.44 7.215 11.632 6.672 11.856 6.643a5.277 5.277 0 001.431-.4 5.387 5.387 0 001.4-.889l.021.022.982-1.078a2.185 2.185 0 00.044-2.83z" fill="#66caff"/></g></svg><svg width="34.28" height="34.21" viewBox="-2 -2 34.28 34.21" id="phone-2" y="100.4" xmlns="http://www.w3.org/2000/svg"><path data-name="Path 177" d="M29.601 23.897l-4.676-4.678a2.438 2.438 0 00-3.437.066l-2.356 2.356c-.149-.081-.3-.168-.465-.259a22.05 22.05 0 01-9.774-9.777q-.134-.234-.253-.454l1.58-1.578.778-.778a2.435 2.435 0 00.063-3.437L6.383.68a2.434 2.434 0 00-3.438.065L1.629 2.069l.034.036A7.624 7.624 0 00.579 4.02a7.841 7.841 0 00-.483 1.944c-.619 5.119 1.721 9.8 8.068 16.147 8.776 8.773 15.85 8.113 16.155 8.079a7.92 7.92 0 001.949-.489 7.516 7.516 0 001.907-1.081l.029.026 1.337-1.308a2.443 2.443 0 00.06-3.441zm0 0" fill="#66caff"/></svg><svg data-name="Group 184" width="46.66" height="32.4" viewBox="-2 -2 46.66 32.4" id="telegram" y="68" xmlns="http://www.w3.org/2000/svg"><g data-name="Group 183"><g data-name="Group 182"><path data-name="Path 176" d="M42.638.59V.583a.73.73 0 00-.094-.243.749.749 0 00-.167-.18c-.013-.01-.028-.017-.042-.028a.73.73 0 00-.169-.083.778.778 0 00-.118-.024.679.679 0 00-.093-.018h-.108l-.056.011L.568 8.537a.708.708 0 00-.187 1.32l11.808 6.23 2.073 11.494a.09.09 0 000 .028.77.77 0 000 .166.734.734 0 00.091.274c.007.014.007.024.014.038l.01.007a.465.465 0 01.031.038.894.894 0 00.108.111.081.081 0 00.021.017c.01.011.02.011.031.018a.975.975 0 00.135.069.3.3 0 00.059.024.7.7 0 00.2.031h.044a.715.715 0 00.507-.224l7.859-5.247 8.234 5.358a.748.748 0 00.388.113.726.726 0 00.226-.037.7.7 0 00.44-.431l9.895-26.856a.715.715 0 00.1-.371.627.627 0 00-.024-.117zm-8.227 4.774L17.377 17.891a.726.726 0 00-.077.069l-.024.024a.549.549 0 00-.041.052.394.394 0 00-.035.052.628.628 0 00-.066.132c0 .011-.01.017-.01.027l-.007.008-1.952 6.344-1.546-8.585zm-18.144 20.6l1.935-6.393 3.012 1.959.864.561-2.93 1.952zm0 0" fill="#66caff"/></g></g></svg></svg>