<svg xmlns="http://www.w3.org/2000/svg" xmlns:xlink="http://www.w3.org/1999/xlink"><symbol fill="none" viewBox="0 0 64 64" id="cub" xmlns="http://www.w3.org/2000/svg"><path fill="#F1F2F5" d="M0 0h64v64H0z"/></symbol><symbol viewBox="0 0 26.663 37.921" id="geo" xmlns="http://www.w3.org/2000/svg"><path data-name="Path 178" d="M13.331 0A13.334 13.334 0 001.99 20.342l10.583 17.054a1.108 1.108 0 00.944.525h.008a1.111 1.111 0 00.945-.54l10.313-17.219A13.335 13.335 0 0013.331 0z" fill="#66caff"/><path data-name="Path 179" d="M13.331 6.667a6.666 6.666 0 106.666 6.666 6.673 6.673 0 00-6.666-6.666z" fill="#fff"/></symbol><symbol viewBox="0 0 22.224 24.843" id="phone" xmlns="http://www.w3.org/2000/svg"><g data-name="Group 185"><path data-name="Path 177" d="M21.723 19.652l-3.432-3.846a1.655 1.655 0 00-2.337-.139 1.535 1.535 0 00-.185.193L14.04 17.8c-.109-.067-.222-.139-.341-.214a17.361 17.361 0 01-4.158-3.369 19.438 19.438 0 01-3.013-4.671 16.129 16.129 0 01-.186-.373l1.159-1.3.571-.641a2.176 2.176 0 00.046-2.826L4.685.559A1.654 1.654 0 002.351.414a1.53 1.53 0 00-.189.2l-.966 1.088.025.03a6.514 6.514 0 00-.8 1.575 7.1 7.1 0 00-.354 1.6c-.455 4.209 1.263 8.058 5.921 13.278 6.44 7.215 11.632 6.672 11.856 6.643a5.277 5.277 0 001.431-.4 5.387 5.387 0 001.4-.889l.021.022.982-1.078a2.185 2.185 0 00.044-2.83z" fill="#66caff"/></g></symbol><symbol viewBox="0 0 30.28 30.213" id="phone-2" xmlns="http://www.w3.org/2000/svg"><path data-name="Path 177" d="M29.601 23.897l-4.676-4.678a2.438 2.438 0 00-3.437.066l-2.356 2.356c-.149-.081-.3-.168-.465-.259a22.05 22.05 0 01-9.774-9.777q-.134-.234-.253-.454l1.58-1.578.778-.778a2.435 2.435 0 00.063-3.437L6.383.68a2.434 2.434 0 00-3.438.065L1.629 2.069l.034.036A7.624 7.624 0 00.579 4.02a7.841 7.841 0 00-.483 1.944c-.619 5.119 1.721 9.8 8.068 16.147 8.776 8.773 15.85 8.113 16.155 8.079a7.92 7.92 0 001.949-.489 7.516 7.516 0 001.907-1.081l.029.026 1.337-1.308a2.443 2.443 0 00.06-3.441zm0 0" fill="#66caff"/></symbol><symbol id="phone-w" viewBox="0 0 22.2 24.8" xmlns="http://www.w3.org/2000/svg"><style>.est0{fill:#fff}</style><g id="eGroup_185" transform="translate(-130.422 -78)"><path id="ePath_177" class="est0" d="M152.1 97.7l-3.4-3.8c-.6-.7-1.7-.7-2.3-.1l-.2.2-1.7 1.9c-.1-.1-.2-.1-.3-.2-1.6-.9-3-2-4.2-3.4-1.2-1.4-2.2-3-3-4.7-.1-.1-.1-.3-.2-.4l1.2-1.3.6-.6c.7-.8.7-2 0-2.8l-3.4-3.8c-.6-.7-1.6-.7-2.3-.1l-.2.2-1 1.1c-.3.5-.6 1-.8 1.6-.2.5-.3 1.1-.4 1.6-.5 4.2 1.3 8.1 5.9 13.3 6.4 7.2 11.6 6.7 11.9 6.6.5-.1 1-.2 1.4-.4.5-.2 1-.5 1.4-.9l1-1.1c.7-.9.7-2.1 0-2.9z"/></g></symbol><symbol fill="none" viewBox="0 0 64 58" id="telegram" xmlns="http://www.w3.org/2000/svg"><path d="M15.4 33.467l7.96 19.899 10.362-10.363L51.49 57.125 64 .875 0 27.533l15.4 5.934zm30.312-16.453L26.122 34.88l-2.44 9.196-4.507-11.27 26.537-15.793z" fill="#010002"/></symbol></svg>