<svg width="64" height="64" viewBox="0 0 64 64" fill="none" xmlns="http://www.w3.org/2000/svg">
<path d="M43.2941 30.1176H48.8359C47.9652 22.2771 41.7228 16.0347 33.8823 15.164V20.7059H30.1176V15.164C22.2771 16.0347 16.0347 22.2771 15.1639 30.1176H20.7058V33.8824H15.1639C16.0347 41.7229 22.2771 47.9652 30.1176 48.836V43.2941H33.8823V48.836C41.7228 47.9652 47.9652 41.7229 48.8359 33.8824H43.2941V30.1176Z" fill="black"/>
<path d="M54.6274 9.37263C48.5834 3.3285 40.5475 0 32 0C23.4525 0 15.4166 3.3285 9.37263 9.37263C3.3285 15.4166 0 23.4525 0 32C0 40.5475 3.3285 48.5834 9.37263 54.6274C15.4166 60.6715 23.4525 64 32 64C40.5475 64 48.5834 60.6715 54.6274 54.6274C60.6715 48.5834 64 40.5475 64 32C64 23.4525 60.6715 15.4166 54.6274 9.37263ZM52.6194 33.8824C51.7212 43.8005 43.8004 51.7212 33.8823 52.6195V54.557H30.1175V52.6195C20.1995 51.7212 12.2787 43.8005 11.3806 33.8824H9.30725V30.1176H11.3807C12.2787 20.1995 20.1995 12.2787 30.1176 11.3806V9.42212H33.8824V11.3804C43.8005 12.2786 51.7212 20.1995 52.6195 30.1176H54.672V33.8824H52.6194Z" fill="black"/>
</svg>
