<svg width="12" height="12" viewBox="0 0 12 12" fill="none" xmlns="http://www.w3.org/2000/svg">
<path d="M6.5 0.5C6.5 0.223858 6.27614 0 6 0C5.72386 0 5.5 0.223858 5.5 0.5H6.5ZM5.5 11.5C5.5 11.7761 5.72386 12 6 12C6.27614 12 6.5 11.7761 6.5 11.5H5.5ZM11.5 6.5C11.7761 6.5 12 6.27614 12 6C12 5.72386 11.7761 5.5 11.5 5.5V6.5ZM0.5 5.5C0.223858 5.5 0 5.72386 0 6C0 6.27614 0.223858 6.5 0.5 6.5V5.5ZM5.5 0.5V6H6.5V0.5H5.5ZM5.5 6V11.5H6.5V6H5.5ZM6 6.5H11.5V5.5H6V6.5ZM6 5.5H0.5V6.5H6V5.5Z" fill="#007BFF"/>
</svg>
