<svg width="14" height="16" viewBox="0 0 14 16" fill="none" xmlns="http://www.w3.org/2000/svg">
<path d="M1.5 2.5H12.5V14C12.5 14.8284 11.8284 15.5 11 15.5H3C2.17157 15.5 1.5 14.8284 1.5 14V2.5Z" stroke="#C4C8CB"/>
<rect x="0.25" y="2.25" width="13.5" height="0.5" rx="0.25" fill="#C4C8CB" stroke="#C4C8CB" stroke-width="0.5"/>
<mask id="path-3-inside-1" fill="white">
<path d="M6.5 5.5C6.5 5.22386 6.72386 5 7 5C7.27614 5 7.5 5.22386 7.5 5.5V12.5C7.5 12.7761 7.27614 13 7 13C6.72386 13 6.5 12.7761 6.5 12.5V5.5Z"/>
</mask>
<path d="M6.5 5.5C6.5 5.22386 6.72386 5 7 5C7.27614 5 7.5 5.22386 7.5 5.5V12.5C7.5 12.7761 7.27614 13 7 13C6.72386 13 6.5 12.7761 6.5 12.5V5.5Z" fill="#C4C8CB"/>
<path d="M6.5 5.5V12.5H8.5V5.5H6.5ZM7.5 12.5V5.5H5.5V12.5H7.5ZM7 12C7.27614 12 7.5 12.2239 7.5 12.5H5.5C5.5 13.3284 6.17157 14 7 14V12ZM6.5 12.5C6.5 12.2239 6.72386 12 7 12V14C7.82843 14 8.5 13.3284 8.5 12.5H6.5ZM7 6C6.72386 6 6.5 5.77614 6.5 5.5H8.5C8.5 4.67157 7.82843 4 7 4V6ZM7 4C6.17157 4 5.5 4.67157 5.5 5.5H7.5C7.5 5.77614 7.27614 6 7 6V4Z" fill="#C4C8CB" mask="url(#path-3-inside-1)"/>
<rect x="9.25" y="6.25" width="0.5" height="5.5" rx="0.25" fill="#C4C8CB" stroke="#C4C8CB" stroke-width="0.5"/>
<rect x="4.25" y="6.25" width="0.5" height="5.5" rx="0.25" fill="#C4C8CB" stroke="#C4C8CB" stroke-width="0.5"/>
<path d="M4.5 2C4.5 1.17157 5.17157 0.5 6 0.5H8C8.82843 0.5 9.5 1.17157 9.5 2V2.5H4.5V2Z" stroke="#C4C8CB"/>
</svg>
